# xmcd
#
# Track frame offsets:
# 150
# 19098
# 34243
# 51593
# 67453
# 84893
# 100262
# 117017
# 133352
# 150031
# 164320
# 178883
# 196263
# 214273
# 240430
# 257326
# 273301
#
# Disc length: 3820 seconds
#
# Revision: 0
# Processed by: cddbd v1.5.2PL0 Copyright (c) Steve Scherf et al.
# Submitted via: Audion 3.0.2 (http://www.panic.com/audion/)
#
DISCID=eb0eea11
DTITLE=Rusty McCarthy - Nowhere Close
DYEAR=1900
DGENRE=
TTITLE0=My Hometown is Motown
TTITLE1=Thief of my Heart
TTITLE2=Nowhere Close
TTITLE3=Beat this Machine
TTITLE4=Nothing Lasts Forever
TTITLE5=Leaving With Steven
TTITLE6=C'est Noir ce Soir
TTITLE7=Man in the Moon
TTITLE8=I Love you Crazy
TTITLE9=Address of the Blues
TTITLE10=My Babe
TTITLE11=Only Love
TTITLE12=Sailing Away
TTITLE13=What am I gonna do
TTITLE14=Greenlites
TTITLE15=Hello Heartache
TTITLE16=Hot House Flowers
EXTD=
EXTT0=
EXTT1=
EXTT2=
EXTT3=
EXTT4=
EXTT5=
EXTT6=
EXTT7=
EXTT8=
EXTT9=
EXTT10=
EXTT11=
EXTT12=
EXTT13=
EXTT14=
EXTT15=
EXTT16=
PLAYORDER=
